<svg id="Flat" height="512" viewBox="0 0 512 512" width="512" xmlns="http://www.w3.org/2000/svg"><path d="m418.571 272.552c-56.333 0-102-46.686-102-104.276 0-44.826 29.172-84.57 68-99.31-13.342-4.286-28.988-4.966-43.714-4.966-77.793 0-140.857 64.471-140.857 144s63.064 144 140.857 144c61.351 0 111.822-38.385 131.143-94.345-15.9 10.475-33.1 14.897-53.429 14.897z" fill="#f7cc38"/><path d="m341.655 341.333a75.66 75.66 0 0 0 -14.72 1.451c-5.592-27.444-30.156-48.117-59.625-48.117a61.18 61.18 0 0 0 -25.408 5.538 81.012 81.012 0 0 0 -75.971-52.205c-44.792 0-81.1 35.817-81.1 80a78.706 78.706 0 0 0 4.751 26.767c-36.393 1.057-65.582 30.416-65.582 66.566 0 36.819 30.26 66.667 67.586 66.667h250.069c41.06 0 74.345-32.832 74.345-73.333s-33.285-73.334-74.345-73.334z" fill="#6ed2f0"/><path d="m463.589 149.47a8 8 0 0 0 -10.119-5.059l-13.47 4.489v-12.9a8 8 0 0 0 -16 0v12.9l-13.47-4.49a8 8 0 1 0 -5.06 15.178l14.064 4.688-10.19 15.285a8 8 0 1 0 13.312 8.876l9.344-14.015 9.344 14.016a8 8 0 0 0 13.312-8.876l-10.19-15.285 14.064-4.688a8 8 0 0 0 5.059-10.119z" fill="#fbe36a"/><path d="m69.47 216.411-13.47 4.489v-12.9a8 8 0 0 0 -16 0v12.9l-13.47-4.49a8 8 0 1 0 -5.06 15.178l14.064 4.688-10.19 15.285a8 8 0 1 0 13.312 8.876l9.344-14.015 9.344 14.016a8 8 0 1 0 13.312-8.876l-10.19-15.285 14.064-4.688a8 8 0 0 0 -5.06-15.178z" fill="#fbe36a"/><path d="m117.47 48.411-13.47 4.489v-12.9a8 8 0 0 0 -16 0v12.9l-13.47-4.49a8 8 0 0 0 -5.06 15.178l14.064 4.688-10.19 15.286a8 8 0 1 0 13.312 8.876l9.344-14.016 9.344 14.016a8 8 0 0 0 13.312-8.876l-10.19-15.285 14.064-4.688a8 8 0 0 0 -5.06-15.178z" fill="#fbe36a"/><g fill="#f7cc38"><circle cx="472" cy="56" r="8"/><circle cx="144" cy="176" r="8"/><circle cx="264" cy="24" r="8"/><circle cx="488" cy="336" r="8"/></g></svg>