<svg id="Layer_1" enable-background="new 0 0 256 256" height="512" viewBox="0 0 256 256" width="512" xmlns="http://www.w3.org/2000/svg"><path d="m198.515 75.481h-1.337c-1.048-21.156-18.533-37.988-39.949-37.988-4.614 0-9.041.791-13.165 2.228-5.106-17.743-21.449-30.728-40.835-30.728-23.472 0-42.5 19.028-42.5 42.5 0 1.664.106 3.303.292 4.917-23.298 3.043-41.292 22.955-41.292 47.083 0 26.234 21.266 47.5 47.5 47.5h131.286c20.852 0 37.756-16.904 37.756-37.756 0-20.852-16.904-37.756-37.756-37.756z" fill="#a4c9ff"/><path d="m198.515 152.993h-131.286c-27.294 0-49.5-22.206-49.5-49.5 0-24.121 17.546-44.757 41.123-48.779-.082-1.097-.123-2.175-.123-3.221 0-24.538 19.962-44.5 44.5-44.5 19.033 0 36.073 12.321 42.141 30.208 3.851-1.134 7.831-1.708 11.859-1.708 21.776 0 39.787 16.538 41.811 37.991 21.681.282 39.232 18.006 39.232 39.752-.001 21.923-17.835 39.757-39.757 39.757zm-95.286-142c-22.332 0-40.5 18.168-40.5 40.5 0 1.522.091 3.056.279 4.688.125 1.085-.645 2.07-1.728 2.212-22.548 2.945-39.551 22.334-39.551 45.1 0 25.089 20.411 45.5 45.5 45.5h131.287c19.716 0 35.756-16.04 35.756-35.756s-16.04-35.756-35.756-35.756h-1.337c-1.066 0-1.945-.836-1.998-1.901-1.003-20.236-17.673-36.087-37.952-36.087-4.268 0-8.476.712-12.506 2.117-.52.181-1.09.14-1.578-.112-.488-.253-.851-.695-1.002-1.223-4.963-17.241-20.964-29.282-38.914-29.282z" fill="#3762cc"/><path d="m93.886 182.871h-3.75l.982-.781c.339-.27.553-.655.602-1.085.049-.431-.072-.854-.342-1.194-.31-.389-.773-.612-1.27-.612-.365 0-.723.125-1.009.353l-4.174 3.32h-2.688l.977-1c.732-.748.946-1.857.545-2.824-.4-.967-1.335-1.6-2.383-1.612l-1.492-.017 1.967-1.967 5.3-.604c.43-.049.816-.263 1.085-.602.27-.339.391-.763.342-1.193-.093-.82-.786-1.438-1.61-1.438-.061 0-.123.003-.185.01l-1.247.142 2.652-2.652c.307-.306.475-.714.475-1.147s-.169-.841-.475-1.147-.713-.475-1.147-.475-.841.169-1.147.475l-2.652 2.652.142-1.247c.101-.889-.54-1.694-1.428-1.795-.063-.007-.124-.01-.185-.01-.825 0-1.517.618-1.611 1.439l-.604 5.299-1.912 1.912-.015-1.343c-.014-1.262-1.053-2.289-2.315-2.289l-.256.002c-.601.005-1.168.239-1.598.659l-1.323 1.293v-2.741l3.32-4.174c.557-.7.44-1.722-.26-2.279-.286-.228-.644-.353-1.009-.353-.498 0-.96.223-1.27.612l-.781.982v-3.75c0-.894-.728-1.622-1.622-1.622s-1.622.728-1.622 1.622v3.75l-.781-.982c-.31-.389-.773-.612-1.27-.612-.365 0-.723.125-1.009.353-.7.557-.817 1.579-.26 2.279l3.32 4.174v2.687l-1.267-1.239c-.43-.42-.998-.655-1.599-.66l-.235-.002c-1.282 0-2.321 1.027-2.335 2.289l-.016 1.398-1.967-1.967-.604-5.299c-.093-.82-.786-1.438-1.611-1.438-.061 0-.123.003-.185.01-.43.049-.816.263-1.086.602s-.391.763-.342 1.194l.142 1.247-2.652-2.652c-.306-.306-.713-.475-1.147-.475-.433 0-.841.169-1.147.475-.632.632-.632 1.661 0 2.294l2.652 2.652-1.247-.142c-.063-.007-.124-.01-.185-.01-.825 0-1.517.618-1.611 1.438-.101.889.54 1.694 1.428 1.795l5.3.604 1.967 1.968-1.398.016c-1.273.014-2.3 1.062-2.289 2.335l.002.236c.005.6.239 1.168.659 1.598l1.24 1.267h-2.687l-4.174-3.32c-.286-.228-.644-.353-1.009-.353-.497 0-.96.223-1.27.612-.27.339-.391.763-.342 1.194.049.43.263.816.602 1.085l.982.781h-3.751c-.894 0-1.622.728-1.622 1.622s.728 1.622 1.622 1.622h3.75l-.982.781c-.7.557-.817 1.579-.26 2.279.31.389.772.612 1.27.612.365 0 .723-.125 1.009-.353l4.174-3.32h2.74l-1.175 1.201c-.645.658-.833 1.634-.48 2.486.359.866 1.192 1.433 2.12 1.443l1.574.017-1.872 1.872-5.3.604c-.43.049-.816.263-1.085.602-.27.339-.391.763-.342 1.193.093.82.785 1.438 1.611 1.438.061 0 .122-.003.184-.01l1.248-.142-2.652 2.652c-.306.306-.475.714-.475 1.147s.169.841.475 1.147.713.475 1.147.475.841-.169 1.147-.475l2.652-2.652-.142 1.247c-.101.889.54 1.694 1.428 1.795.062.007.124.01.185.01.825 0 1.518-.619 1.61-1.439l.604-5.299 1.927-1.927.021 1.865c.007.602.243 1.169.664 1.597l.165.168c.438.446 1.024.691 1.651.691.609 0 1.184-.234 1.618-.659l.972-.95v2.688l-3.321 4.174c-.557.7-.44 1.722.26 2.279.286.228.645.353 1.009.353.498 0 .96-.223 1.27-.612l.781-.982v3.75c0 .894.728 1.622 1.622 1.622.895 0 1.622-.728 1.622-1.622v-3.75l.781.982c.31.389.773.612 1.27.612.365 0 .723-.125 1.009-.353.7-.557.816-1.579.26-2.279l-3.32-4.174v-2.742l1.027 1.005c.435.425 1.01.659 1.619.659.626 0 1.213-.246 1.651-.691l.165-.168c.421-.428.657-.995.664-1.597l.02-1.811 1.872 1.872.604 5.299c.094.82.786 1.438 1.61 1.438.061 0 .122-.003.185-.01.431-.049.816-.263 1.086-.602s.391-.763.342-1.194l-.142-1.247 2.652 2.652c.306.306.713.475 1.147.475.433 0 .841-.169 1.147-.475.632-.632.632-1.661 0-2.294l-2.652-2.652 1.247.142c.063.007.124.01.185.01.825 0 1.517-.618 1.611-1.438.049-.431-.073-.854-.342-1.193-.27-.339-.655-.553-1.086-.602l-5.299-.604-1.872-1.872 1.811-.02c.601-.007 1.168-.243 1.597-.664l.168-.166c.908-.892.923-2.359.032-3.27l-1.004-1.027h2.743l4.174 3.32c.286.227.644.353 1.009.353.498 0 .96-.223 1.27-.612.557-.7.44-1.722-.26-2.279l-.983-.781h3.751c.894 0 1.622-.728 1.622-1.622.002-.893-.726-1.621-1.62-1.621zm-32.152-2.214 2.623-.029 2.244 2.243h-2.701zm2.928 7.396-2.578-.028s1.86-1.901 1.868-1.909h2.648zm4.232 3.623-1.848 1.807s-.036-3.173-.036-3.19l1.884-1.884zm0-11.099-2.244-2.244.03-2.623 2.214 2.165zm3.244-2.647c.008-.008 2.27-2.219 2.27-2.219l.029 2.568-2.298 2.298v-2.647zm1.903 15.553s-1.895-1.853-1.903-1.86v-3.213l1.938 1.938zm2.329-5.429-1.938-1.938h3.213c.008.008 1.86 1.903 1.86 1.903zm1.329-5.183h-3.267l2.245-2.245c.017 0 3.182.036 3.182.036z" fill="#e0ebfc"/><path d="m189.766 220.393h-3.75l.982-.781c.339-.27.553-.655.602-1.085.049-.431-.072-.854-.342-1.194-.31-.389-.773-.612-1.27-.612-.365 0-.723.125-1.009.353l-4.174 3.32h-2.688l.977-1c.732-.748.946-1.857.545-2.824-.4-.967-1.335-1.6-2.383-1.612l-1.492-.017 1.967-1.967 5.3-.604c.43-.049.816-.263 1.085-.602.27-.339.391-.763.342-1.193-.093-.82-.786-1.438-1.61-1.438-.061 0-.123.003-.185.01l-1.247.142 2.652-2.652c.307-.306.475-.714.475-1.147s-.169-.841-.475-1.147-.713-.475-1.147-.475-.841.169-1.147.475l-2.652 2.652.142-1.247c.101-.889-.54-1.694-1.428-1.795-.063-.007-.124-.01-.185-.01-.825 0-1.517.618-1.611 1.439l-.604 5.299-1.912 1.912-.015-1.343c-.014-1.262-1.053-2.289-2.315-2.289l-.256.002c-.601.005-1.168.239-1.598.659l-1.323 1.293v-2.741l3.32-4.174c.557-.7.44-1.722-.26-2.279-.286-.228-.644-.353-1.009-.353-.498 0-.96.223-1.27.612l-.781.982v-3.75c0-.894-.728-1.622-1.622-1.622s-1.622.728-1.622 1.622v3.75l-.781-.982c-.31-.389-.773-.612-1.27-.612-.365 0-.723.125-1.009.353-.7.557-.817 1.579-.26 2.279l3.32 4.174v2.687l-1.267-1.239c-.43-.42-.998-.655-1.599-.66l-.235-.002c-1.282 0-2.321 1.027-2.335 2.289l-.016 1.398-1.967-1.967-.604-5.299c-.093-.82-.786-1.438-1.611-1.438-.061 0-.123.003-.185.01-.43.049-.816.263-1.086.602s-.391.763-.342 1.194l.142 1.247-2.652-2.652c-.306-.306-.713-.475-1.147-.475-.433 0-.841.169-1.147.475-.632.632-.632 1.661 0 2.294l2.652 2.652-1.247-.142c-.063-.007-.124-.01-.185-.01-.825 0-1.517.618-1.611 1.438-.101.889.54 1.694 1.428 1.795l5.3.604 1.967 1.968-1.398.016c-1.273.014-2.3 1.062-2.289 2.335l.002.236c.005.6.239 1.168.659 1.598l1.24 1.267h-2.687l-4.174-3.32c-.286-.228-.644-.353-1.009-.353-.497 0-.96.223-1.27.612-.27.339-.391.763-.342 1.194.049.43.263.816.602 1.085l.982.781h-3.751c-.894 0-1.622.728-1.622 1.622s.728 1.622 1.622 1.622h3.75l-.982.781c-.7.557-.817 1.579-.26 2.279.31.389.772.612 1.27.612.365 0 .723-.125 1.009-.353l4.174-3.32h2.74l-1.175 1.201c-.645.658-.833 1.634-.48 2.486.359.866 1.192 1.433 2.12 1.443l1.574.017-1.872 1.872-5.3.604c-.43.049-.816.263-1.085.602-.27.339-.391.763-.342 1.193.093.82.785 1.438 1.611 1.438.061 0 .122-.003.184-.01l1.248-.142-2.652 2.652c-.306.306-.475.714-.475 1.147s.169.841.475 1.147.713.475 1.147.475.841-.169 1.147-.475l2.652-2.652-.142 1.247c-.101.889.54 1.694 1.428 1.795.062.007.124.01.185.01.825 0 1.518-.619 1.61-1.439l.604-5.299 1.927-1.927.021 1.865c.007.602.243 1.169.664 1.597l.165.168c.438.446 1.024.691 1.651.691.609 0 1.184-.234 1.618-.659l.972-.95v2.688l-3.321 4.174c-.557.7-.44 1.722.26 2.279.286.228.645.353 1.009.353.498 0 .96-.223 1.27-.612l.781-.982v3.75c0 .894.728 1.622 1.622 1.622.895 0 1.622-.728 1.622-1.622v-3.75l.781.982c.31.389.773.612 1.27.612.365 0 .723-.125 1.009-.353.7-.557.816-1.579.26-2.279l-3.32-4.174v-2.742l1.027 1.005c.435.425 1.01.659 1.619.659.626 0 1.213-.246 1.651-.691l.165-.168c.421-.428.657-.995.664-1.597l.02-1.811 1.872 1.872.604 5.299c.094.82.786 1.438 1.61 1.438.061 0 .122-.003.185-.01.431-.049.816-.263 1.086-.602s.391-.763.342-1.194l-.142-1.247 2.652 2.652c.306.306.713.475 1.147.475.433 0 .841-.169 1.147-.475.632-.632.632-1.661 0-2.294l-2.652-2.652 1.247.142c.063.007.124.01.185.01.825 0 1.517-.618 1.611-1.438.049-.431-.073-.854-.342-1.193-.27-.339-.655-.553-1.086-.602l-5.299-.604-1.872-1.872 1.811-.02c.601-.007 1.168-.243 1.597-.664l.168-.166c.908-.892.923-2.359.032-3.27l-1.004-1.027h2.743l4.174 3.32c.286.227.644.353 1.009.353.498 0 .96-.223 1.27-.612.557-.7.44-1.722-.26-2.279l-.983-.781h3.751c.894 0 1.622-.728 1.622-1.622.002-.893-.725-1.621-1.62-1.621zm-32.152-2.214 2.623-.029 2.244 2.243h-2.701zm2.928 7.396-2.578-.028s1.86-1.901 1.868-1.909h2.648zm4.232 3.623-1.848 1.807s-.036-3.173-.036-3.19l1.884-1.884zm0-11.099-2.244-2.244.03-2.623 2.214 2.165zm3.244-2.648c.008-.008 2.27-2.219 2.27-2.219l.029 2.568-2.298 2.298v-2.647zm1.904 15.553s-1.895-1.853-1.903-1.86v-3.213l1.938 1.938zm2.329-5.429-1.938-1.938h3.213c.008.008 1.86 1.903 1.86 1.903zm1.328-5.182h-3.267l2.245-2.245c.017 0 3.182.036 3.182.036z" fill="#e0ebfc"/><path d="m76.427 185.541c.008-.008 1.868-1.909 1.868-1.909l-2.577-.029-1.938 1.938z" fill="#e0ebfc"/><g fill="#a4c9ff"><path d="m145.613 184.434c-.058-.602-.158-1.19-.292-1.765-.383-1.982-.957-3.907-1.72-5.745-1.99-4.797-5.295-8.88-9.379-11.925l-1.033-.77-1.033.77c-4.084 3.045-7.389 7.128-9.379 11.925-.762 1.838-1.337 3.763-1.72 5.745-.23.984-.354 2.011-.354 3.069 0 7.167 5.59 12.977 12.486 12.977s12.486-5.81 12.486-12.977c0-.441-.021-.875-.062-1.304z"/><path d="m116.123 225.261c-.058-.602-.158-1.19-.292-1.765-.383-1.982-.957-3.907-1.72-5.745-1.99-4.797-5.295-8.88-9.379-11.925l-1.033-.77-1.033.77c-4.084 3.045-7.389 7.128-9.379 11.925-.762 1.838-1.337 3.763-1.72 5.745-.23.984-.354 2.011-.354 3.069 0 7.167 5.59 12.977 12.486 12.977s12.486-5.81 12.486-12.977c0-.441-.021-.875-.062-1.304z"/><path d="m209.847 184.434c-.058-.602-.158-1.19-.292-1.765-.383-1.982-.957-3.907-1.72-5.745-1.99-4.797-5.295-8.88-9.379-11.925l-1.033-.77-1.033.77c-4.084 3.045-7.389 7.128-9.379 11.925-.762 1.838-1.337 3.763-1.72 5.745-.23.984-.354 2.011-.354 3.069 0 7.167 5.59 12.977 12.486 12.977s12.486-5.81 12.486-12.977c.001-.441-.021-.875-.062-1.304z"/></g></svg>