<?xml version="1.0" encoding="UTF-8"?>
<!-- Generator: Adobe Illustrator 18.0.0, SVG Export Plug-In . SVG Version: 6.00 Build 0)  -->
<svg enable-background="new 0 0 498.044 498.044" version="1.1" viewBox="0 0 498.04 498.04" xml:space="preserve" xmlns="http://www.w3.org/2000/svg" xmlns:cc="http://creativecommons.org/ns#" xmlns:dc="http://purl.org/dc/elements/1.1/" xmlns:rdf="http://www.w3.org/1999/02/22-rdf-syntax-ns#"><metadata><rdf:RDF><cc:Work rdf:about=""><dc:format>image/svg+xml</dc:format><dc:type rdf:resource="http://purl.org/dc/dcmitype/StillImage"/><dc:title/></cc:Work></rdf:RDF></metadata>
<g id="XMLID_203_" transform="matrix(-.72178 0 0 .7021 408.71 73.862)">
	<path id="XMLID_206_" d="m455.38 293.34-61.145-61.131c-1.694-1.673-3.957-2.614-6.322-2.614s-4.636 0.94-6.314 2.614l-10.659 10.664c-3.478 3.491-3.478 9.139 0 12.628l44.157 44.152-44.157 44.183c-3.478 3.491-3.489 9.138 0 12.628l10.659 10.667c1.679 1.674 3.949 2.614 6.314 2.614s4.628-0.94 6.322-2.614l61.145-61.164c1.684-1.673 2.622-3.949 2.622-6.314s-0.939-4.641-2.622-6.313z"/>
	<path id="XMLID_205_" d="m301.84 176.02-38.031 14.463-28.348-37.724v-5.745c0-22.891-18.564-41.455-41.457-41.455h-17.716c-13.731 0-25.829 6.764-33.376 17.067l-52.126 26.416c-4.033 2.052-7.283 5.374-9.248 9.452l-30.211 62.884c-4.918 10.256-0.596 22.555 9.655 27.487 2.858 1.374 5.905 2.034 8.892 2.034 7.674 0 15.039-4.304 18.581-11.68l27.188-56.595 19.197-9.724v123.78l4.949 61.502-85.487 46.211c-13.206 7.141-18.132 23.63-10.983 36.838 4.9 9.098 14.269 14.261 23.916 14.261 4.382 0 8.805-1.055 12.907-3.273l101.58-54.915c9.735-5.26 15.32-15.901 14.1-26.898l-4.604-41.659 29.471 53.064v89.053c0 15.007 12.184 27.178 27.191 27.178 15.009 0 27.181-12.17 27.181-27.178v-96.098c0-4.618-1.188-9.163-3.426-13.199l-36.177-64.889v-75.378l4.729 6.298c3.977 5.294 10.116 8.229 16.456 8.229 2.467 0 4.941-0.434 7.324-1.342l52.502-19.973c10.636-4.047 15.978-15.943 11.92-26.567-4.03-10.624-15.909-16.005-26.552-11.928z"/>
	<path id="XMLID_204_" d="m185.16 96.29c26.578 0 48.137-21.548 48.137-48.143 0-26.599-21.559-48.147-48.137-48.147-26.605 0-48.164 21.548-48.164 48.148 0 26.595 21.558 48.142 48.164 48.142z"/>
</g>
</svg>
