<?xml version="1.0" encoding="UTF-8"?>
<!-- Generator: Adobe Illustrator 19.0.0, SVG Export Plug-In . SVG Version: 6.00 Build 0)  -->
<svg enable-background="new 0 0 512 512" version="1.1" viewBox="0 0 512 512" xml:space="preserve" xmlns="http://www.w3.org/2000/svg" xmlns:cc="http://creativecommons.org/ns#" xmlns:dc="http://purl.org/dc/elements/1.1/" xmlns:rdf="http://www.w3.org/1999/02/22-rdf-syntax-ns#"><metadata><rdf:RDF><cc:Work rdf:about=""><dc:format>image/svg+xml</dc:format><dc:type rdf:resource="http://purl.org/dc/dcmitype/StillImage"/><dc:title/></cc:Work></rdf:RDF></metadata>
<g transform="matrix(.73157 0 0 .73157 64.41 60.746)">
		<path d="m447.93 117.73c-4.293-6.572-13.195-7.529-18.766-2.484-22.59 20.452-24.27 21.849-30.17 27.755l-32.16-4.431-3.264 8.831c4.075 8.507 4.667 18.33 1.573 27.29l6.408 0.882c-8.368 11.835-15.685 24.353-21.877 37.417-1.032 20.236 0.823 40.573 5.581 60.402 7.337-34.409 22.545-66.541 44.397-93.947l12.835 1.768c9.819 1.36 18.935-5.505 20.295-15.38 0.821-5.957-1.386-11.622-5.426-15.479l18.201-16.479c4.552-4.122 5.731-11.005 2.373-16.145z"/>
</g>
		<path d="m321.97 135.85c-4.7033-1.7419-9.9216 0.66501-11.66 5.3661l-4.5906 12.418c6.4415-0.22825 12.497 1.8999 17.258 5.669l4.3594-11.794c1.7375-4.7011-0.665-9.9216-5.3668-11.659z" stroke-width=".73157"/>
<g transform="matrix(.73157 0 0 .73157 64.41 60.746)">
		<path d="m369.79 470.72c20.18-5.182 35.096-23.494 35.096-45.291 0-8.227-2.132-15.954-5.863-22.668-4.042-7.275-9.965-13.354-17.116-17.587l-30.822-78.791c-13.526-34.577-18.247-71.586-14.162-107.89-1.281 0.209 0.212 0.023-25.228 2.878-3.45 38.461 1.977 77.483 16.283 114.05l24.446 62.492-15.738-2.092-14.644-37.436-3.796 34.985-45.93-6.105c-3.413 5.495-7.955 10.017-14.021 13.427l7.677 0.371c7.447 0.36 13.691 6.185 14.055 13.632 0.426 8.723-6.759 15.553-15.069 15.133-5.998-0.29-45.499-2.2-50.707-2.451-7.938-0.384-14.063-7.131-13.679-15.069 0.335-6.908 5.673-14.134 16.396-13.614-7.172-5.028-12.503-12.379-15.005-20.781l-25.212-3.351 12.442-39.078c0.861-2.705 1.161-5.558 0.88-8.383l-4.25-42.801c-39.847-7.433-38.686-7.036-42.733-8.495l5.078 51.134-12.853 40.372c-40.851 2.645-73.171 36.596-73.171 78.115 0 22.908 9.84 43.516 25.521 57.834l-11.571 11.573c-3.517 3.517-4.167 9.154-1.188 13.137 3.713 4.963 10.785 5.337 15.004 1.119l14.27-14.27c10.844 5.679 23.175 8.909 36.265 8.909 11.673 0 204.62-29.823 204.62-29.823l34.605 35.132c3.845 3.903 10.129 3.954 14.036 0.106 3.904-3.845 3.952-10.129 0.106-14.035zm-182.61-42.854c-1.206 23.775-20.525 43.094-44.3 44.299-27.767 1.407-50.576-21.402-49.169-49.169 1.205-23.776 20.523-43.094 44.299-44.3 27.767-1.408 50.576 21.402 49.17 49.17z"/>
</g>
<g transform="matrix(.73157 0 0 .73157 64.41 60.746)">
		<path d="m276.34 4.526c-21.323-11.089-47.407-1.002-55.722 21.548-6.856 18.595 1.331 39.766 18.915 48.909 21.323 11.088 47.404 1.002 55.72-21.547 6.858-18.595-1.328-39.766-18.913-48.91z"/>
</g>
<g transform="matrix(.73157 0 0 .73157 64.41 60.746)">
		<path d="m329.08 145.06-61.898 6.948-37.539-44.723c8.081 5.694 19.952 14.058 37.726 26.582l45.346-5.088s-66.685-29.258-106.92-47.052c-12.254-5.419-27.225 2.284-32.704 16.705-3.937 10.366-34.858 91.771-39.883 105-5.437 14.312-0.029 29.891 12.679 34.718 4.24 2.336 0.112 1.14 81.622 16.344l-9.738 89.99c-1.385 12.807 8.651 23.935 21.51 23.935 10.887 0 20.256-8.208 21.456-19.285l11.891-109.89c1.215-11.227-6.419-21.496-17.52-23.567l-34.287-6.395 8.572-20.716c-2.912-6.19-24.572-52.255-27.337-58.133l43.744 52.117c3.814 4.546 9.71 7 15.801 6.319l71.024-7.971c9.184-1.031 16.488-8.663 16.47-17.906-0.02-10.929-9.457-19.123-20.017-17.937z"/>
</g>
</svg>
