<?xml version="1.0" encoding="UTF-8"?>
<!-- Generator: Adobe Illustrator 19.0.0, SVG Export Plug-In . SVG Version: 6.00 Build 0)  -->
<svg enable-background="new 0 0 511.999 511.999" version="1.1" viewBox="0 0 512 512" xml:space="preserve" xmlns="http://www.w3.org/2000/svg" xmlns:cc="http://creativecommons.org/ns#" xmlns:dc="http://purl.org/dc/elements/1.1/" xmlns:rdf="http://www.w3.org/1999/02/22-rdf-syntax-ns#"><metadata><rdf:RDF><cc:Work rdf:about=""><dc:format>image/svg+xml</dc:format><dc:type rdf:resource="http://purl.org/dc/dcmitype/StillImage"/><dc:title/></cc:Work></rdf:RDF></metadata>
<g transform="matrix(.44535 .44539 -.44539 .44535 255.4 40.811)">
		<path d="m503.06 157.28-42.338-42.338 31.827-31.815c2.814-2.811 4.396-6.62 4.396-10.604s-1.582-7.793-4.395-10.605l-42.612-42.612c-5.625-5.625-15.586-5.625-21.211 0l-31.815 31.827-42.344-42.346c-11.715-11.715-30.71-11.715-42.426 0-11.717 11.715-11.717 30.71 0 42.426l148.49 148.49c11.717 11.715 30.712 11.715 42.427 0s11.715-30.71 0-42.426z"/>
</g>
<g transform="matrix(.44535 .44539 -.44539 .44535 255.4 40.811)">
		<path d="m199.86 460.79-148.49-148.49c-11.717-11.715-30.71-11.715-42.427 0-11.715 11.717-11.715 30.712 0 42.427l42.345 42.345-31.765 31.752c-2.813 2.813-4.395 6.621-4.395 10.605s1.582 7.793 4.395 10.605l42.612 42.598c2.929 2.931 6.767 4.396 10.605 4.396s7.676-1.465 10.605-4.395l31.752-31.752 42.338 42.339c11.715 11.715 30.71 11.715 42.426 0 11.717-11.717 11.717-30.712 0-42.427z"/>
</g>
<g transform="matrix(.44535 .44539 -.44539 .44535 255.4 40.811)">
		<polygon points="333.35 242.13 269.71 178.49 178.65 269.87 242.29 333.51"/>
</g>
<g transform="matrix(.44535 .44539 -.44539 .44535 255.4 40.811)">
		<path d="m460.63 242.13-190.92-190.92c-11.715-11.715-30.711-11.715-42.426 0-11.717 11.717-11.717 30.71 0 42.427l190.92 190.92c11.715 11.715 30.71 11.715 42.426 0 11.717-11.715 11.717-30.71 0-42.427z"/>
</g>
<g transform="matrix(.44535 .44539 -.44539 .44535 244.55 38.641)">
		<path d="m299.33 408.62-190.92-190.92c-11.715-11.715-30.71-11.715-42.425 0-11.717 11.717-11.717 30.712 0 42.427l190.92 190.92c11.715 11.715 30.71 11.715 42.426 0 11.717-11.715 11.717-30.71 0-42.426z"/>
</g>
</svg>
